<?xml version="1.0" encoding="UTF-8" standalone="no"?>
<!-- Created with Inkscape (http://www.inkscape.org/) -->

<svg
   xmlns:dc="http://purl.org/dc/elements/1.1/"
   xmlns:cc="http://creativecommons.org/ns#"
   xmlns:rdf="http://www.w3.org/1999/02/22-rdf-syntax-ns#"
   xmlns:svg="http://www.w3.org/2000/svg"
   xmlns="http://www.w3.org/2000/svg"
   xmlns:sodipodi="http://sodipodi.sourceforge.net/DTD/sodipodi-0.dtd"
   xmlns:inkscape="http://www.inkscape.org/namespaces/inkscape"
   width="173"
   height="173"
   id="svg2"
   version="1.1"
   inkscape:version="0.48.1 "
   sodipodi:docname="background.svg"
   inkscape:export-filename="C:\Users\lhchavez\Documents\Visual Studio 2010\Projects\gtalkchat\gtalkchat\Background.png"
   inkscape:export-xdpi="90"
   inkscape:export-ydpi="90">
  <defs
     id="defs4" />
  <sodipodi:namedview
     id="base"
     pagecolor="#ffffff"
     bordercolor="#666666"
     borderopacity="1.0"
     inkscape:pageopacity="0.0"
     inkscape:pageshadow="2"
     inkscape:zoom="1.7428239"
     inkscape:cx="160.24412"
     inkscape:cy="80.128528"
     inkscape:document-units="px"
     inkscape:current-layer="layer1"
     showgrid="false"
     inkscape:snap-global="true"
     showguides="true"
     inkscape:guide-bbox="true"
     inkscape:window-width="1024"
     inkscape:window-height="538"
     inkscape:window-x="-8"
     inkscape:window-y="-8"
     inkscape:window-maximized="1">
    <inkscape:grid
       type="xygrid"
       id="grid3004"
       empspacing="5"
       visible="true"
       enabled="true"
       snapvisiblegridlinesonly="true" />
  </sodipodi:namedview>
  <metadata
     id="metadata7">
    <rdf:RDF>
      <cc:Work
         rdf:about="">
        <dc:format>image/svg+xml</dc:format>
        <dc:type
           rdf:resource="http://purl.org/dc/dcmitype/StillImage" />
        <dc:title></dc:title>
      </cc:Work>
    </rdf:RDF>
  </metadata>
  <g
     inkscape:label="Layer 1"
     inkscape:groupmode="layer"
     id="layer1"
     transform="translate(0,-879.36218)">
    <path
       style="fill:#ffffff;stroke:#000000;stroke-width:0;stroke-linecap:butt;stroke-linejoin:miter;stroke-miterlimit:4;stroke-opacity:1;stroke-dasharray:none"
       d="M 58 57 C 53.012583 57.10961 51.062417 59.94756 51 63 L 51 103 C 51.06242 106.81769 53.758417 109 58 109 L 73 109 L 101 127 L 95 109 L 115 109 C 119.10664 109.0689 121.97677 105.66035 122 103 L 122 63 C 121.9768 59.24158 120.45482 57.10961 115 57 L 58 57 z M 85.875 65.96875 C 88.027051 65.968773 89.891647 66.511132 91.46875 67.5625 L 96.25 67.5625 C 96.95638 67.562522 97.35373 67.583952 97.46875 67.625 C 97.583722 67.666092 97.669442 67.713954 97.71875 67.8125 C 97.817294 67.960373 97.874976 68.247177 97.875 68.625 C 97.874976 69.052148 97.832116 69.33574 97.75 69.5 C 97.700692 69.58216 97.623186 69.638236 97.5 69.6875 C 97.376766 69.736803 96.95638 69.781269 96.25 69.78125 L 93.3125 69.78125 C 94.232446 70.964083 94.687479 72.472583 94.6875 74.3125 C 94.687479 76.415295 93.891172 78.192564 92.28125 79.6875 C 90.67129 81.182455 88.523102 81.937507 85.8125 81.9375 C 84.695386 81.937507 83.541377 81.766067 82.375 81.4375 C 81.652161 82.061771 81.160876 82.625559 80.90625 83.09375 C 80.651609 83.561953 80.531243 83.952696 80.53125 84.28125 C 80.531243 84.56053 80.666431 84.830907 80.9375 85.09375 C 81.208554 85.356602 81.742699 85.541258 82.53125 85.65625 C 82.991224 85.721965 84.128805 85.794469 85.96875 85.84375 C 89.352899 85.925893 91.560375 86.039651 92.5625 86.1875 C 94.090282 86.401067 95.306975 86.955035 96.21875 87.875 C 97.13048 88.794968 97.593726 89.934155 97.59375 91.28125 C 97.593726 93.137608 96.710093 94.873624 94.96875 96.5 C 92.405966 98.898476 89.060908 100.09374 84.9375 100.09375 C 81.766891 100.09374 79.091166 99.397974 76.90625 97.96875 C 75.674149 97.147343 75.062498 96.293354 75.0625 95.40625 C 75.062498 95.011973 75.163041 94.613016 75.34375 94.21875 C 75.623024 93.61091 76.191814 92.771743 77.0625 91.6875 C 77.177492 91.539646 78.001837 90.657619 79.5625 89.03125 C 78.70824 88.521983 78.103197 88.058737 77.75 87.65625 C 77.396794 87.253766 77.218746 86.79052 77.21875 86.28125 C 77.218746 85.706274 77.469299 85.022119 77.9375 84.25 C 78.405693 83.47789 79.464162 82.381563 81.15625 80.96875 C 79.776293 80.295212 78.739254 79.363717 78 78.15625 C 77.260737 76.948805 76.874997 75.618354 76.875 74.15625 C 76.874997 71.922061 77.722377 70.016212 79.40625 68.40625 C 81.090111 66.79633 83.246513 65.968773 85.875 65.96875 z M 85.46875 67.15625 C 84.253069 67.156272 83.22764 67.655771 82.40625 68.625 C 81.584843 69.594271 81.156242 71.058304 81.15625 73.0625 C 81.156242 75.658135 81.726639 77.695777 82.84375 79.125 C 83.697995 80.209256 84.7795 80.750008 86.09375 80.75 C 87.342263 80.750008 88.382514 80.280154 89.1875 79.34375 C 89.992455 78.407366 90.374983 76.910476 90.375 74.90625 C 90.374983 72.294217 89.821015 70.259787 88.6875 68.78125 C 87.849659 67.697025 86.782975 67.156272 85.46875 67.15625 z M 80.9375 89.21875 C 80.165378 90.056576 79.581766 90.839667 79.1875 91.5625 C 78.793223 92.285328 78.593745 92.954661 78.59375 93.5625 C 78.593745 94.351038 79.047171 95.033587 80 95.625 C 81.64279 96.643528 84.020101 97.156242 87.125 97.15625 C 90.082021 97.156242 92.282889 96.63692 93.6875 95.59375 C 95.092071 94.550568 95.781228 93.432811 95.78125 92.25 C 95.781228 91.395743 95.369055 90.767664 94.53125 90.40625 C 93.676975 90.044834 91.967391 89.846961 89.4375 89.78125 C 85.741191 89.682682 82.925277 89.498025 80.9375 89.21875 z "
       transform="translate(0,879.36218)"
       id="path2998" />
  </g>
</svg>
