<?xml version="1.0" encoding="UTF-8" standalone="no"?>
<!-- Created with Inkscape (http://www.inkscape.org/) -->

<svg
   xmlns:dc="http://purl.org/dc/elements/1.1/"
   xmlns:cc="http://creativecommons.org/ns#"
   xmlns:rdf="http://www.w3.org/1999/02/22-rdf-syntax-ns#"
   xmlns:svg="http://www.w3.org/2000/svg"
   xmlns="http://www.w3.org/2000/svg"
   xmlns:sodipodi="http://sodipodi.sourceforge.net/DTD/sodipodi-0.dtd"
   xmlns:inkscape="http://www.inkscape.org/namespaces/inkscape"
   width="62"
   height="62"
   id="svg2"
   version="1.1"
   inkscape:version="0.48.1 "
   sodipodi:docname="icon.svg">
  <defs
     id="defs4" />
  <sodipodi:namedview
     id="base"
     pagecolor="#ffffff"
     bordercolor="#666666"
     borderopacity="1.0"
     inkscape:pageopacity="0.0"
     inkscape:pageshadow="2"
     inkscape:zoom="5.2745383"
     inkscape:cx="38.862236"
     inkscape:cy="32.794526"
     inkscape:document-units="px"
     inkscape:current-layer="layer1"
     showgrid="false"
     inkscape:snap-global="true"
     showguides="true"
     inkscape:guide-bbox="true"
     inkscape:window-width="1024"
     inkscape:window-height="538"
     inkscape:window-x="-8"
     inkscape:window-y="-8"
     inkscape:window-maximized="1">
    <inkscape:grid
       type="xygrid"
       id="grid3004"
       empspacing="5"
       visible="true"
       enabled="true"
       snapvisiblegridlinesonly="true" />
  </sodipodi:namedview>
  <metadata
     id="metadata7">
    <rdf:RDF>
      <cc:Work
         rdf:about="">
        <dc:format>image/svg+xml</dc:format>
        <dc:type
           rdf:resource="http://purl.org/dc/dcmitype/StillImage" />
        <dc:title></dc:title>
      </cc:Work>
    </rdf:RDF>
  </metadata>
  <g
     inkscape:label="Layer 1"
     inkscape:groupmode="layer"
     id="layer1"
     transform="translate(0,-990.36218)">
    <path
       style="fill:#ffffff;stroke:#000000;stroke-width:0;stroke-linecap:butt;stroke-linejoin:miter;stroke-miterlimit:4;stroke-opacity:1;stroke-dasharray:none"
       d="M 16 13 C 13.424833 13.057 12.032221 15.4239 12 17 L 12 36 C 12.03218 37.9712 13.809937 40 16 40 L 24 40 L 38 49 L 35 40 L 45 40 C 47.120385 40.036 48.988004 37.3736 49 36 L 49 17 C 48.988 15.0593 47.816494 13.0566 45 13 L 16 13 z M 30.65625 17.59375 C 31.767423 17.593762 32.716942 17.863395 33.53125 18.40625 L 36 18.40625 C 36.364726 18.406261 36.596862 18.416305 36.65625 18.4375 C 36.715614 18.458717 36.755791 18.511617 36.78125 18.5625 C 36.832131 18.638852 36.843737 18.773668 36.84375 18.96875 C 36.843737 19.1893 36.823649 19.321437 36.78125 19.40625 C 36.755791 19.448672 36.719855 19.505813 36.65625 19.53125 C 36.592621 19.556707 36.364726 19.56251 36 19.5625 L 34.5 19.5625 C 34.974998 20.173234 35.218739 20.956242 35.21875 21.90625 C 35.218739 22.99199 34.800004 23.915617 33.96875 24.6875 C 33.137477 25.459393 32.024571 25.843754 30.625 25.84375 C 30.048198 25.843754 29.445988 25.7634 28.84375 25.59375 C 28.470525 25.916081 28.225222 26.195758 28.09375 26.4375 C 27.962271 26.679248 27.906246 26.892857 27.90625 27.0625 C 27.906246 27.206701 27.953789 27.333036 28.09375 27.46875 C 28.233704 27.604469 28.530346 27.721876 28.9375 27.78125 C 29.174999 27.815181 29.768728 27.818305 30.71875 27.84375 C 32.466094 27.886163 33.576321 27.954911 34.09375 28.03125 C 34.882593 28.141521 35.529222 28.431243 36 28.90625 C 36.470755 29.381259 36.687488 29.960702 36.6875 30.65625 C 36.687488 31.614747 36.242861 32.53525 35.34375 33.375 C 34.020503 34.61341 32.316547 35.218744 30.1875 35.21875 C 28.550413 35.218744 27.159392 34.862954 26.03125 34.125 C 25.395077 33.700881 25.062499 33.23929 25.0625 32.78125 C 25.062499 32.577672 25.125444 32.391072 25.21875 32.1875 C 25.362948 31.873653 25.644187 31.434829 26.09375 30.875 C 26.153124 30.798658 26.60043 30.339746 27.40625 29.5 C 26.965168 29.237049 26.651117 28.989067 26.46875 28.78125 C 26.286379 28.573435 26.187498 28.356702 26.1875 28.09375 C 26.187498 27.796872 26.320753 27.42992 26.5625 27.03125 C 26.804243 26.632585 27.345071 26.073231 28.21875 25.34375 C 27.506234 24.995981 26.97545 24.529704 26.59375 23.90625 C 26.212045 23.282808 25.999998 22.567431 26 21.8125 C 25.999998 20.658917 26.443063 19.675025 27.3125 18.84375 C 28.181931 18.012497 29.299078 17.593762 30.65625 17.59375 z M 30.4375 18.21875 C 29.809805 18.218761 29.29911 18.468306 28.875 18.96875 C 28.450881 19.469215 28.218746 20.21517 28.21875 21.25 C 28.218746 22.590209 28.51695 23.637047 29.09375 24.375 C 29.534824 24.934836 30.102661 25.218754 30.78125 25.21875 C 31.425897 25.218754 31.95936 24.983495 32.375 24.5 C 32.790624 24.016515 32.999991 23.253596 33 22.21875 C 32.999991 20.870074 32.67902 19.825916 32.09375 19.0625 C 31.661146 18.50268 31.116077 18.218761 30.4375 18.21875 z M 28.09375 29.59375 C 27.695079 30.026346 27.391072 30.439278 27.1875 30.8125 C 26.983922 31.185719 26.906247 31.529903 26.90625 31.84375 C 26.906247 32.250897 27.133024 32.600884 27.625 32.90625 C 28.473225 33.432148 29.709341 33.687496 31.3125 33.6875 C 32.839304 33.687496 33.962254 33.413622 34.6875 32.875 C 35.412725 32.336372 35.781239 31.766973 35.78125 31.15625 C 35.781239 30.71517 35.557586 30.40536 35.125 30.21875 C 34.68391 30.032139 33.806264 29.940179 32.5 29.90625 C 30.591478 29.855356 29.120103 29.737949 28.09375 29.59375 z "
       transform="translate(0,990.36218)"
       id="path2998" />
  </g>
</svg>
