<?xml version="1.0" encoding="UTF-8" standalone="no"?>
<!-- Created with Inkscape (http://www.inkscape.org/) -->

<svg
   xmlns:dc="http://purl.org/dc/elements/1.1/"
   xmlns:cc="http://creativecommons.org/ns#"
   xmlns:rdf="http://www.w3.org/1999/02/22-rdf-syntax-ns#"
   xmlns:svg="http://www.w3.org/2000/svg"
   xmlns="http://www.w3.org/2000/svg"
   xmlns:sodipodi="http://sodipodi.sourceforge.net/DTD/sodipodi-0.dtd"
   xmlns:inkscape="http://www.inkscape.org/namespaces/inkscape"
   width="256"
   height="256"
   id="svg2"
   version="1.1"
   inkscape:version="0.48.2 r9819"
   sodipodi:docname="icon-plus.svg">
  <defs
     id="defs4" />
  <sodipodi:namedview
     id="base"
     pagecolor="#ffffff"
     bordercolor="#666666"
     borderopacity="1.0"
     inkscape:pageopacity="0.0"
     inkscape:pageshadow="2"
     inkscape:zoom="1.4142136"
     inkscape:cx="171.63424"
     inkscape:cy="79.250158"
     inkscape:document-units="px"
     inkscape:current-layer="layer1"
     showgrid="false"
     inkscape:snap-global="true"
     showguides="true"
     inkscape:guide-bbox="true"
     inkscape:window-width="1920"
     inkscape:window-height="1018"
     inkscape:window-x="-8"
     inkscape:window-y="-8"
     inkscape:window-maximized="1">
    <inkscape:grid
       type="xygrid"
       id="grid3004"
       empspacing="5"
       visible="true"
       enabled="true"
       snapvisiblegridlinesonly="true" />
  </sodipodi:namedview>
  <metadata
     id="metadata7">
    <rdf:RDF>
      <cc:Work
         rdf:about="">
        <dc:format>image/svg+xml</dc:format>
        <dc:type
           rdf:resource="http://purl.org/dc/dcmitype/StillImage" />
        <dc:title />
      </cc:Work>
    </rdf:RDF>
  </metadata>
  <g
     inkscape:label="Layer 1"
     inkscape:groupmode="layer"
     id="layer1"
     transform="translate(0,-796.36218)">
    <path
       style="fill:#282828;fill-opacity:1"
       d="m 0,924.36217 0,-127.99997 127.99999,0 128.00001,0 0,127.99997 0,128.00003 -128.00001,0 -127.99999,0 0,-128.00003 z"
       id="path3071"
       inkscape:connector-curvature="0" />
    <path
       style="fill:#ffffff;stroke:#000000;stroke-width:0;stroke-linecap:butt;stroke-linejoin:miter;stroke-miterlimit:4;stroke-opacity:1;stroke-dasharray:none"
       d="m 65.338793,854.40634 c -10.956568,0.2408 -15.86856,8.3257 -16.005679,15.03142 l 0,86.80181 c 0.137116,8.38687 6.687591,14.61388 16.005679,14.61388 l 32.150539,0 61.239118,39.52705 -13.12929,-39.52705 43.93443,0 c 9.02163,0.15143 17.20727,-8.76951 17.2583,-14.61388 l 0,-86.80181 c -0.0511,-8.25667 -5.27491,-14.79062 -17.2583,-15.03142 l -124.194797,0 z m 89.399837,12.89733 4.91769,0 0,11.59831 11.59832,0 0,4.8713 -11.59832,0 0,11.64471 -4.91769,0 0,-11.64471 -11.55192,0 0,-4.8713 11.55192,0 0,-11.59831 z m -40.6869,8.07243 c 4.72772,4e-5 8.78318,1.1698 12.24783,3.47949 l 10.53127,0 c 1.55181,5e-5 2.43813,0.0489 2.69081,0.13918 0.25257,0.0903 0.44839,0.24744 0.55672,0.46393 0.21648,0.32486 0.32471,0.88654 0.32475,1.71656 -4e-5,0.93837 -0.0979,1.58767 -0.27836,1.94851 -0.10837,0.1805 -0.28609,0.30932 -0.55672,0.41754 -0.27071,0.10823 -1.18539,0.18562 -2.7372,0.18558 l -6.44867,0 c 2.02098,2.59849 3.01552,5.93254 3.01557,9.97455 -5e-5,4.61952 -1.7521,8.54616 -5.28884,11.83028 -3.53683,3.28419 -8.28796,4.91771 -14.24273,4.91769 -2.45412,2e-5 -4.95336,-0.34524 -7.51571,-1.06704 -1.58797,1.37141 -2.68815,2.59014 -3.24753,3.61867 -0.55939,1.02858 -0.8351,1.87623 -0.83508,2.59802 -2e-5,0.61354 0.33237,1.23193 0.92786,1.80934 0.59547,0.57745 1.74718,0.9536 3.4795,1.20623 1.0105,0.1443 3.52004,0.30927 7.5621,0.41754 7.43445,0.18045 12.27319,0.41749 14.47471,0.74229 3.35629,0.46917 6.02302,1.69045 8.02603,3.71146 2.00293,2.02103 3.01551,4.50998 3.01557,7.46932 -6e-5,4.07814 -1.92731,7.93264 -5.75277,11.50553 -5.63004,5.26907 -12.97833,7.88683 -22.03681,7.88686 -6.96533,-3e-5 -12.829525,-1.54593 -17.62944,-4.68572 -2.70674,-1.8045 -4.082609,-3.71115 -4.082609,-5.65998 0,-0.86617 0.20612,-1.73189 0.603113,-2.59803 0.61352,-1.33532 1.891495,-3.18528 3.804249,-5.56719 0.252616,-0.32481 2.092269,-2.27268 5.520797,-5.84555 -1.876661,-1.11878 -3.213901,-2.13136 -3.989819,-3.01556 -0.775933,-0.88419 -1.159832,-1.85039 -1.159832,-2.96917 0,-1.26315 0.502413,-2.75753 1.530978,-4.45376 1.02855,-1.6962 3.427312,-4.08722 7.144563,-7.19096 -3.03155,-1.47965 -5.381352,-3.56408 -7.005383,-6.21669 -1.624047,-2.65257 -2.412451,-5.55633 -2.412451,-8.76833 0,-4.90816 1.821601,-9.17493 5.5208,-12.71176 3.699184,-3.53674 8.468354,-5.28879 14.242734,-5.28883 z m -0.92786,2.59802 c -2.67067,4e-5 -4.92256,1.0719 -6.72703,3.20114 -1.8045,2.12934 -2.69082,5.38608 -2.69081,9.78898 -1e-5,5.7022 1.21096,10.12869 3.66507,13.26847 1.87665,2.38194 4.25736,3.5723 7.14456,3.57228 2.74279,2e-5 5.005,-1.00482 6.77342,-3.06195 1.76837,-2.05709 2.64437,-5.29323 2.64442,-9.6962 -5e-5,-5.73823 -1.22131,-10.25232 -3.71146,-13.50044 -1.84061,-2.38187 -4.21103,-3.57224 -7.09817,-3.57228 z m -9.97456,48.43458 c -1.69623,1.84057 -2.9845,3.56171 -3.85064,5.14965 -0.866166,1.58794 -1.299027,3.07204 -1.299012,4.40736 -1.5e-5,1.7323 1.061538,3.24731 3.154742,4.54654 3.60895,2.23755 8.81357,3.3403 15.63453,3.34032 6.49612,-2e-5 11.29621,-1.14142 14.38192,-3.4331 3.08562,-2.29171 4.63927,-4.7317 4.63933,-7.33014 -6e-5,-1.87668 -0.94307,-3.19585 -2.7836,-3.98982 -1.87671,-0.79397 -5.57662,-1.29383 -11.13439,-1.43819 -8.1202,-0.21653 -14.37605,-0.63909 -18.74288,-1.25262 z"
       id="path2998"
       inkscape:connector-curvature="0" />
  </g>
</svg>
