<?xml version="1.0" encoding="UTF-8" standalone="no"?>
<!-- Generator: Adobe Illustrator 14.0.0, SVG Export Plug-In . SVG Version: 6.00 Build 43363)  -->

<svg
   xmlns:dc="http://purl.org/dc/elements/1.1/"
   xmlns:cc="http://creativecommons.org/ns#"
   xmlns:rdf="http://www.w3.org/1999/02/22-rdf-syntax-ns#"
   xmlns:svg="http://www.w3.org/2000/svg"
   xmlns="http://www.w3.org/2000/svg"
   xmlns:sodipodi="http://sodipodi.sourceforge.net/DTD/sodipodi-0.dtd"
   xmlns:inkscape="http://www.inkscape.org/namespaces/inkscape"
   version="1.0"
   id="Layer_1"
   x="0px"
   y="0px"
   width="48"
   height="48"
   viewBox="0 0 48 48"
   enable-background="new 0 0 70.388 100"
   xml:space="preserve"
   inkscape:version="0.48.1 "
   sodipodi:docname="lock icon.svg"
   inkscape:export-filename="C:\Users\lhchavez\Documents\Visual Studio 2010\Projects\gtalkchat\gtalkchat\icons\appbar.lock.rest.png"
   inkscape:export-xdpi="90"
   inkscape:export-ydpi="90"><metadata
   id="metadata9"><rdf:RDF><cc:Work
       rdf:about=""><dc:format>image/svg+xml</dc:format><dc:type
         rdf:resource="http://purl.org/dc/dcmitype/StillImage" /><dc:title /></cc:Work></rdf:RDF></metadata><defs
   id="defs7" /><sodipodi:namedview
   pagecolor="#ffffff"
   bordercolor="#666666"
   borderopacity="1"
   objecttolerance="10"
   gridtolerance="10"
   guidetolerance="10"
   inkscape:pageopacity="0"
   inkscape:pageshadow="2"
   inkscape:window-width="1024"
   inkscape:window-height="538"
   id="namedview5"
   showgrid="false"
   inkscape:zoom="7.7675247"
   inkscape:cx="33.319151"
   inkscape:cy="20.630396"
   inkscape:window-x="-8"
   inkscape:window-y="-8"
   inkscape:window-maximized="1"
   inkscape:current-layer="Layer_1"
   showguides="true"
   inkscape:guide-bbox="true" />
<rect
   style="fill:#000080;stroke-width:0;stroke-linejoin:miter;stroke-miterlimit:4;stroke-dasharray:none"
   id="rect3025"
   width="48"
   height="48"
   x="0"
   y="0" /><path
   d="M 19,23.500135 19,19 c 0,-3.237865 1.762542,-5 5.000406,-5 C 27.238,14 29,15.762135 29,19 l 0,0 2.999999,0 0,-0.489431 C 31.999727,14.027538 28.483165,11 24.000406,11 c -4.483302,0 -8.000407,3.027538 -8.000407,7.510569 l 0,4.989566 -1.500001,0 C 14.438068,23.499864 13.999999,24 13.999999,24 l 0,12.5 c 0,0.06166 0.438066,0.5 0.500001,0.5 l 18.999999,0 c 0.06221,0 0.500002,-0.43859 0.500002,-0.5 l -2e-6,-12.5 c 2.72e-4,-0.06166 -0.438069,-0.500136 -0.5,-0.500136"
   id="path3"
   inkscape:connector-curvature="0"
   sodipodi:nodetypes="cssscccsscccsssscc"
   style="fill:#ffffff" />
</svg>